<svg aria-hidden="true" style="position: absolute; width: 0; height: 0; overflow: hidden;" version="1.1" xmlns="http://www.w3.org/2000/svg" xmlns:xlink="http://www.w3.org/1999/xlink">
<defs>
<symbol id="icon-facebook" viewBox="0 0 32 32">
<path d="M8.434 17.043h3.508v14.441c0 0.285 0.231 0.516 0.516 0.516h5.947c0.285 0 0.516-0.231 0.516-0.516v-14.373h4.032c0.262 0 0.483-0.197 0.513-0.457l0.612-5.316c0.017-0.146-0.030-0.293-0.127-0.402s-0.238-0.173-0.385-0.173h-4.645v-3.333c0-1.005 0.541-1.514 1.608-1.514 0.152 0 3.037 0 3.037 0 0.285 0 0.516-0.231 0.516-0.516v-4.88c0-0.285-0.231-0.516-0.516-0.516h-4.185c-0.030-0.001-0.095-0.004-0.192-0.004-0.726 0-3.25 0.143-5.244 1.977-2.209 2.033-1.902 4.467-1.829 4.889v3.897h-3.682c-0.285 0-0.516 0.231-0.516 0.516v5.248c0 0.285 0.231 0.516 0.516 0.516z"></path>
</symbol>
<symbol id="icon-instagram" viewBox="0 0 32 32">
<path d="M4.109 0.001h23.784c2.26 0 4.107 1.848 4.107 4.108v23.784c0 2.259-1.847 4.106-4.107 4.106h-23.784c-2.26 0-4.109-1.847-4.109-4.106v-23.784c0-2.26 1.849-4.108 4.109-4.108zM23.312 3.555c-0.793 0-1.441 0.65-1.441 1.443v3.447c0 0.793 0.647 1.441 1.441 1.441h3.616c0.792 0 1.441-0.648 1.441-1.441v-3.447c0-0.793-0.649-1.443-1.441-1.443h-3.616zM28.382 13.533h-2.816c0.267 0.872 0.412 1.792 0.412 2.748 0 5.321-4.455 9.636-9.948 9.636-5.492 0-9.947-4.316-9.947-9.636 0-0.956 0.146-1.876 0.412-2.748h-2.938v13.518c0 0.7 0.572 1.27 1.271 1.27h22.283c0.7 0 1.27-0.57 1.27-1.27v-13.518zM16.030 9.704c-3.548 0-6.426 2.787-6.426 6.228 0 3.438 2.878 6.227 6.426 6.227 3.55 0 6.428-2.789 6.428-6.227 0-3.441-2.878-6.228-6.428-6.228z"></path>
</symbol>
<symbol id="icon-twitter" viewBox="0 0 32 32">
<path d="M31.275 5.924c-0.503 0.223-1.020 0.411-1.548 0.564 0.625-0.707 1.102-1.539 1.393-2.45 0.065-0.204-0.002-0.427-0.17-0.561s-0.4-0.15-0.585-0.040c-1.122 0.665-2.332 1.143-3.6 1.423-1.278-1.249-3.014-1.96-4.808-1.96-3.788 0-6.87 3.082-6.87 6.869 0 0.298 0.019 0.595 0.056 0.888-4.7-0.413-9.070-2.723-12.071-6.404-0.107-0.131-0.272-0.202-0.44-0.188s-0.32 0.108-0.406 0.255c-0.609 1.044-0.93 2.239-0.93 3.454 0 1.655 0.591 3.226 1.635 4.453-0.317-0.11-0.625-0.247-0.919-0.411-0.158-0.088-0.35-0.086-0.507 0.003s-0.255 0.255-0.259 0.436c-0.001 0.030-0.001 0.061-0.001 0.092 0 2.471 1.33 4.695 3.363 5.908-0.175-0.017-0.349-0.043-0.523-0.076-0.179-0.034-0.363 0.029-0.483 0.165s-0.161 0.326-0.105 0.5c0.753 2.349 2.69 4.078 5.032 4.604-1.943 1.217-4.164 1.854-6.496 1.854-0.487 0-0.976-0.029-1.455-0.085-0.238-0.028-0.465 0.112-0.546 0.338s0.005 0.479 0.207 0.609c2.996 1.921 6.46 2.936 10.018 2.936 6.994 0 11.369-3.298 13.808-6.065 3.041-3.45 4.785-8.016 4.785-12.528 0-0.188-0.003-0.379-0.009-0.569 1.2-0.904 2.233-1.998 3.073-3.255 0.128-0.191 0.114-0.443-0.034-0.619s-0.394-0.233-0.604-0.14z"></path>
</symbol>
</defs>
</svg>
